<?xml version="1.0" encoding="UTF-8" standalone="no"?><svg xmlns="http://www.w3.org/2000/svg" xmlns:xlink="http://www.w3.org/1999/xlink" contentStyleType="text/css" height="434px" preserveAspectRatio="none" style="width:511px;height:434px;background:#FFFFFF;" version="1.1" viewBox="0 0 511 434" width="511px" zoomAndPan="magnify"><defs/><g><!--MD5=[069cecb0f107147f35d50ee2cc41a241]
class Athlete--><g id="elem_Athlete"><rect codeLine="4" fill="#F1F1F1" height="100.8281" id="Athlete" rx="2.5" ry="2.5" style="stroke:#181818;stroke-width:0.5;" width="132" x="372.5" y="300.5"/><ellipse cx="412.7" cy="316.5" fill="#ADD1B2" rx="11" ry="11" style="stroke:#181818;stroke-width:1.0;"/><path d="M415.4656,312.375 Q415.6219,312.1563 415.8094,312.0469 Q415.9969,311.9375 416.2156,311.9375 Q416.5906,311.9375 416.825,312.1953 Q417.0594,312.4531 417.0594,313.0625 L417.0594,314.5156 Q417.0594,315.125 416.825,315.3906 Q416.5906,315.6563 416.2156,315.6563 Q415.8719,315.6563 415.6688,315.4531 Q415.4656,315.2656 415.3563,314.75 Q415.3094,314.3906 415.1219,314.2031 Q414.7938,313.8281 414.1844,313.6094 Q413.575,313.3906 412.95,313.3906 Q412.1844,313.3906 411.5516,313.7188 Q410.9188,314.0469 410.4266,314.7969 Q409.9344,315.5469 409.9344,316.5781 L409.9344,317.6719 Q409.9344,318.9063 410.825,319.7266 Q411.7156,320.5469 413.3094,320.5469 Q414.2469,320.5469 414.9031,320.2969 Q415.2938,320.1406 415.7156,319.7031 Q415.9813,319.4375 416.1297,319.3594 Q416.2781,319.2813 416.4813,319.2813 Q416.8094,319.2813 417.0672,319.5391 Q417.325,319.7969 417.325,320.1406 Q417.325,320.4844 416.9813,320.8906 Q416.4813,321.4688 415.6844,321.7969 Q414.6063,322.25 413.3094,322.25 Q411.7938,322.25 410.5906,321.625 Q409.6063,321.125 408.9188,320.0547 Q408.2313,318.9844 408.2313,317.7031 L408.2313,316.5469 Q408.2313,315.2188 408.8484,314.0703 Q409.4656,312.9219 410.5594,312.3047 Q411.6531,311.6875 412.8875,311.6875 Q413.6219,311.6875 414.2703,311.8516 Q414.9188,312.0156 415.4656,312.375 Z " fill="#000000"/><text fill="#000000" font-family="sans-serif" font-size="14" lengthAdjust="spacing" textLength="44" x="432.3" y="322.2285">Athlete</text><line style="stroke:#181818;stroke-width:0.5;" x1="373.5" x2="503.5" y1="332.5" y2="332.5"/><rect fill="none" height="6" style="stroke:#C82930;stroke-width:1.0;" width="6" x="380.5" y="343.8047"/><text fill="#000000" font-family="sans-serif" font-size="14" lengthAdjust="spacing" textLength="35" x="392.5" y="351.0332">nom :</text><text fill="#008000" font-family="sans-serif" font-size="14" lengthAdjust="spacing" textLength="37" x="431.5" y="351.0332">String</text><rect fill="none" height="6" style="stroke:#C82930;stroke-width:1.0;" width="6" x="380.5" y="361.4141"/><text fill="#000000" font-family="sans-serif" font-size="14" lengthAdjust="spacing" textLength="56" x="392.5" y="368.6426">prenom :</text><text fill="#008000" font-family="sans-serif" font-size="14" lengthAdjust="spacing" textLength="37" x="452.5" y="368.6426">String</text><line style="stroke:#181818;stroke-width:0.5;" x1="373.5" x2="503.5" y1="375.7188" y2="375.7188"/><ellipse cx="383.5" cy="390.0234" fill="#84BE84" rx="3" ry="3" style="stroke:#038048;stroke-width:1.0;"/><text fill="#000000" font-family="sans-serif" font-size="14" lengthAdjust="spacing" textLength="76" x="392.5" y="394.252">affichage() :</text><text fill="#008000" font-family="sans-serif" font-size="14" lengthAdjust="spacing" textLength="26" x="472.5" y="394.252">void</text></g><!--MD5=[4066b0363c5a91ff3b6e03e0428953a9]
class Course--><g id="elem_Course"><rect codeLine="10" fill="#F1F1F1" height="188.875" id="Course" rx="2.5" ry="2.5" style="stroke:#181818;stroke-width:0.5;" width="311" x="7" y="7"/><ellipse cx="135.25" cy="23" fill="#ADD1B2" rx="11" ry="11" style="stroke:#181818;stroke-width:1.0;"/><path d="M138.0156,18.875 Q138.1719,18.6563 138.3594,18.5469 Q138.5469,18.4375 138.7656,18.4375 Q139.1406,18.4375 139.375,18.6953 Q139.6094,18.9531 139.6094,19.5625 L139.6094,21.0156 Q139.6094,21.625 139.375,21.8906 Q139.1406,22.1563 138.7656,22.1563 Q138.4219,22.1563 138.2188,21.9531 Q138.0156,21.7656 137.9063,21.25 Q137.8594,20.8906 137.6719,20.7031 Q137.3438,20.3281 136.7344,20.1094 Q136.125,19.8906 135.5,19.8906 Q134.7344,19.8906 134.1016,20.2188 Q133.4688,20.5469 132.9766,21.2969 Q132.4844,22.0469 132.4844,23.0781 L132.4844,24.1719 Q132.4844,25.4063 133.375,26.2266 Q134.2656,27.0469 135.8594,27.0469 Q136.7969,27.0469 137.4531,26.7969 Q137.8438,26.6406 138.2656,26.2031 Q138.5313,25.9375 138.6797,25.8594 Q138.8281,25.7813 139.0313,25.7813 Q139.3594,25.7813 139.6172,26.0391 Q139.875,26.2969 139.875,26.6406 Q139.875,26.9844 139.5313,27.3906 Q139.0313,27.9688 138.2344,28.2969 Q137.1563,28.75 135.8594,28.75 Q134.3438,28.75 133.1406,28.125 Q132.1563,27.625 131.4688,26.5547 Q130.7813,25.4844 130.7813,24.2031 L130.7813,23.0469 Q130.7813,21.7188 131.3984,20.5703 Q132.0156,19.4219 133.1094,18.8047 Q134.2031,18.1875 135.4375,18.1875 Q136.1719,18.1875 136.8203,18.3516 Q137.4688,18.5156 138.0156,18.875 Z " fill="#000000"/><text fill="#000000" font-family="sans-serif" font-size="14" lengthAdjust="spacing" textLength="46" x="155.75" y="28.7285">Course</text><line style="stroke:#181818;stroke-width:0.5;" x1="8" x2="317" y1="39" y2="39"/><rect fill="none" height="6" style="stroke:#C82930;stroke-width:1.0;" width="6" x="15" y="50.3047"/><text fill="#000000" font-family="sans-serif" font-size="14" lengthAdjust="spacing" textLength="44" x="27" y="57.5332">libelle :</text><text fill="#008000" font-family="sans-serif" font-size="14" lengthAdjust="spacing" textLength="37" x="75" y="57.5332">String</text><line style="stroke:#181818;stroke-width:0.5;" x1="8" x2="317" y1="64.6094" y2="64.6094"/><ellipse cx="18" cy="78.9141" fill="#84BE84" rx="3" ry="3" style="stroke:#038048;stroke-width:1.0;"/><text fill="#000000" font-family="sans-serif" font-size="14" lengthAdjust="spacing" textLength="79" x="27" y="83.1426">getLibelle() :</text><text fill="#008000" font-family="sans-serif" font-size="14" lengthAdjust="spacing" textLength="37" x="110" y="83.1426">String</text><ellipse cx="18" cy="96.5234" fill="#84BE84" rx="3" ry="3" style="stroke:#038048;stroke-width:1.0;"/><text fill="#000000" font-family="sans-serif" font-size="14" lengthAdjust="spacing" textLength="175" x="27" y="100.752">affecterAthleteDansCouloir(</text><text fill="#0000FF" font-family="sans-serif" font-size="14" lengthAdjust="spacing" textLength="44" x="202" y="100.752">Athlete</text><text fill="#000000" font-family="sans-serif" font-size="14" lengthAdjust="spacing" textLength="4" x="246" y="100.752">,</text><text fill="#0000FF" font-family="sans-serif" font-size="14" lengthAdjust="spacing" textLength="15" x="254" y="100.752">int</text><text fill="#000000" font-family="sans-serif" font-size="14" lengthAdjust="spacing" textLength="13" x="269" y="100.752">) :</text><text fill="#008000" font-family="sans-serif" font-size="14" lengthAdjust="spacing" textLength="26" x="286" y="100.752">void</text><ellipse cx="18" cy="114.1328" fill="#84BE84" rx="3" ry="3" style="stroke:#038048;stroke-width:1.0;"/><text fill="#000000" font-family="sans-serif" font-size="14" lengthAdjust="spacing" textLength="162" x="27" y="118.3613">enregistrerTempsCouloir(</text><text fill="#0000FF" font-family="sans-serif" font-size="14" lengthAdjust="spacing" textLength="15" x="189" y="118.3613">int</text><text fill="#000000" font-family="sans-serif" font-size="14" lengthAdjust="spacing" textLength="13" x="204" y="118.3613">) :</text><text fill="#008000" font-family="sans-serif" font-size="14" lengthAdjust="spacing" textLength="26" x="221" y="118.3613">void</text><ellipse cx="18" cy="131.7422" fill="#84BE84" rx="3" ry="3" style="stroke:#038048;stroke-width:1.0;"/><text fill="#000000" font-family="sans-serif" font-size="14" lengthAdjust="spacing" textLength="116" x="27" y="135.9707">finirTempsCouloir(</text><text fill="#0000FF" font-family="sans-serif" font-size="14" lengthAdjust="spacing" textLength="15" x="143" y="135.9707">int</text><text fill="#000000" font-family="sans-serif" font-size="14" lengthAdjust="spacing" textLength="13" x="158" y="135.9707">) :</text><text fill="#008000" font-family="sans-serif" font-size="14" lengthAdjust="spacing" textLength="26" x="175" y="135.9707">void</text><ellipse cx="18" cy="149.3516" fill="#84BE84" rx="3" ry="3" style="stroke:#038048;stroke-width:1.0;"/><text fill="#000000" font-family="sans-serif" font-size="14" lengthAdjust="spacing" textLength="183" x="27" y="153.5801">recupererConcurrentCouloir(</text><text fill="#0000FF" font-family="sans-serif" font-size="14" lengthAdjust="spacing" textLength="15" x="210" y="153.5801">int</text><text fill="#000000" font-family="sans-serif" font-size="14" lengthAdjust="spacing" textLength="13" x="225" y="153.5801">) :</text><text fill="#008000" font-family="sans-serif" font-size="14" lengthAdjust="spacing" textLength="44" x="242" y="153.5801">Athlete</text><ellipse cx="18" cy="166.9609" fill="#84BE84" rx="3" ry="3" style="stroke:#038048;stroke-width:1.0;"/><text fill="#000000" font-family="sans-serif" font-size="14" lengthAdjust="spacing" textLength="145" x="27" y="171.1895">recupererVainqueur() :</text><text fill="#008000" font-family="sans-serif" font-size="14" lengthAdjust="spacing" textLength="44" x="176" y="171.1895">Athlete</text><ellipse cx="18" cy="184.5703" fill="#84BE84" rx="3" ry="3" style="stroke:#038048;stroke-width:1.0;"/><text fill="#000000" font-family="sans-serif" font-size="14" lengthAdjust="spacing" textLength="76" x="27" y="188.7988">affichage() :</text><text fill="#008000" font-family="sans-serif" font-size="14" lengthAdjust="spacing" textLength="26" x="107" y="188.7988">void</text></g><!--MD5=[5e1370445d2c065fb19bb4f605839f3f]
class Couloir--><g id="elem_Couloir"><rect codeLine="22" fill="#F1F1F1" height="153.6563" id="Couloir" rx="2.5" ry="2.5" style="stroke:#181818;stroke-width:0.5;" width="225" x="50" y="274"/><ellipse cx="135.75" cy="290" fill="#ADD1B2" rx="11" ry="11" style="stroke:#181818;stroke-width:1.0;"/><path d="M138.5156,285.875 Q138.6719,285.6563 138.8594,285.5469 Q139.0469,285.4375 139.2656,285.4375 Q139.6406,285.4375 139.875,285.6953 Q140.1094,285.9531 140.1094,286.5625 L140.1094,288.0156 Q140.1094,288.625 139.875,288.8906 Q139.6406,289.1563 139.2656,289.1563 Q138.9219,289.1563 138.7188,288.9531 Q138.5156,288.7656 138.4063,288.25 Q138.3594,287.8906 138.1719,287.7031 Q137.8438,287.3281 137.2344,287.1094 Q136.625,286.8906 136,286.8906 Q135.2344,286.8906 134.6016,287.2188 Q133.9688,287.5469 133.4766,288.2969 Q132.9844,289.0469 132.9844,290.0781 L132.9844,291.1719 Q132.9844,292.4063 133.875,293.2266 Q134.7656,294.0469 136.3594,294.0469 Q137.2969,294.0469 137.9531,293.7969 Q138.3438,293.6406 138.7656,293.2031 Q139.0313,292.9375 139.1797,292.8594 Q139.3281,292.7813 139.5313,292.7813 Q139.8594,292.7813 140.1172,293.0391 Q140.375,293.2969 140.375,293.6406 Q140.375,293.9844 140.0313,294.3906 Q139.5313,294.9688 138.7344,295.2969 Q137.6563,295.75 136.3594,295.75 Q134.8438,295.75 133.6406,295.125 Q132.6563,294.625 131.9688,293.5547 Q131.2813,292.4844 131.2813,291.2031 L131.2813,290.0469 Q131.2813,288.7188 131.8984,287.5703 Q132.5156,286.4219 133.6094,285.8047 Q134.7031,285.1875 135.9375,285.1875 Q136.6719,285.1875 137.3203,285.3516 Q137.9688,285.5156 138.5156,285.875 Z " fill="#000000"/><text fill="#000000" font-family="sans-serif" font-size="14" lengthAdjust="spacing" textLength="45" x="156.25" y="295.7285">Couloir</text><line style="stroke:#181818;stroke-width:0.5;" x1="51" x2="274" y1="306" y2="306"/><rect fill="none" height="6" style="stroke:#C82930;stroke-width:1.0;" width="6" x="58" y="317.3047"/><text fill="#000000" font-family="sans-serif" font-size="14" lengthAdjust="spacing" textLength="80" x="70" y="324.5332">numCouloir :</text><text fill="#008000" font-family="sans-serif" font-size="14" lengthAdjust="spacing" textLength="15" x="154" y="324.5332">int</text><line style="stroke:#181818;stroke-width:0.5;" x1="51" x2="274" y1="331.6094" y2="331.6094"/><ellipse cx="61" cy="345.9141" fill="#84BE84" rx="3" ry="3" style="stroke:#038048;stroke-width:1.0;"/><text fill="#000000" font-family="sans-serif" font-size="14" lengthAdjust="spacing" textLength="130" x="70" y="350.1426">enregistrerTemps() :</text><text fill="#008000" font-family="sans-serif" font-size="14" lengthAdjust="spacing" textLength="26" x="204" y="350.1426">void</text><ellipse cx="61" cy="363.5234" fill="#84BE84" rx="3" ry="3" style="stroke:#038048;stroke-width:1.0;"/><text fill="#000000" font-family="sans-serif" font-size="14" lengthAdjust="spacing" textLength="84" x="70" y="367.752">finirTemps() :</text><text fill="#008000" font-family="sans-serif" font-size="14" lengthAdjust="spacing" textLength="26" x="158" y="367.752">void</text><ellipse cx="61" cy="381.1328" fill="#84BE84" rx="3" ry="3" style="stroke:#038048;stroke-width:1.0;"/><text fill="#000000" font-family="sans-serif" font-size="14" lengthAdjust="spacing" textLength="97" x="70" y="385.3613">affecterAthlete(</text><text fill="#0000FF" font-family="sans-serif" font-size="14" lengthAdjust="spacing" textLength="44" x="167" y="385.3613">Athlete</text><text fill="#000000" font-family="sans-serif" font-size="14" lengthAdjust="spacing" textLength="13" x="211" y="385.3613">) :</text><text fill="#008000" font-family="sans-serif" font-size="14" lengthAdjust="spacing" textLength="26" x="228" y="385.3613">void</text><ellipse cx="61" cy="398.7422" fill="#84BE84" rx="3" ry="3" style="stroke:#038048;stroke-width:1.0;"/><text fill="#000000" font-family="sans-serif" font-size="14" lengthAdjust="spacing" textLength="151" x="70" y="402.9707">recupererConcurrent() :</text><text fill="#008000" font-family="sans-serif" font-size="14" lengthAdjust="spacing" textLength="44" x="225" y="402.9707">Athlete</text><ellipse cx="61" cy="416.3516" fill="#84BE84" rx="3" ry="3" style="stroke:#038048;stroke-width:1.0;"/><text fill="#000000" font-family="sans-serif" font-size="14" lengthAdjust="spacing" textLength="76" x="70" y="420.5801">affichage() :</text><text fill="#008000" font-family="sans-serif" font-size="14" lengthAdjust="spacing" textLength="26" x="150" y="420.5801">void</text></g><!--MD5=[8c83fc1f94a872d1f70b29724d852d9e]
reverse link Couloir to Athlete--><g id="link_Couloir_Athlete"><path codeLine="31" d="M288.37,351 C317.28,351 346.9,351 372.11,351 " fill="none" id="Couloir-backto-Athlete" style="stroke:#181818;stroke-width:1.0;"/><polygon fill="#181818" points="275.16,351,281.16,355,287.16,351,281.16,347,275.16,351" style="stroke:#181818;stroke-width:1.0;"/><text fill="#000000" font-family="sans-serif" font-size="13" lengthAdjust="spacing" textLength="61" x="293.25" y="344.4951">concurrent</text></g><!--MD5=[e3fead6f36b216db213fc906e3286bdb]
reverse link Course to Couloir--><g id="link_Course_Couloir"><path codeLine="32" d="M162.5,209.1 C162.5,230.8 162.5,253.22 162.5,273.61 " fill="none" id="Course-backto-Couloir" style="stroke:#181818;stroke-width:1.0;"/><polygon fill="none" points="162.5,196.07,158.5,202.07,162.5,208.07,166.5,202.07,162.5,196.07" style="stroke:#181818;stroke-width:1.0;"/><text fill="#000000" font-family="sans-serif" font-size="13" lengthAdjust="spacing" textLength="45" x="163.5" y="240.4951">couloirs</text></g><!--MD5=[1f67c06dd4a513e60d5a3b910b6ee8fd]
@startuml

!includeurl https://raw.githubusercontent.com/manuvai/plantuml-utils/master/class_diagram_utils.puml

class Athlete {
    -string(nom)
    -string(prenom)
    +void("affichage()")
}

class Course {
    -string(libelle)

    +string("getLibelle()")
    +void("affecterAthleteDansCouloir(Athlete, int)")
    +void("enregistrerTempsCouloir(int)")
    +void("finirTempsCouloir(int)")
    +member(Athlete, "recupererConcurrentCouloir(int)")
    +member(Athlete, "recupererVainqueur()")
    +void("affichage()")
}

class Couloir {
    -int(numCouloir)
    +void("enregistrerTemps()")
    +void("finirTemps()")
    +void("affecterAthlete(Athlete)")
    +member(Athlete, "recupererConcurrent()")
    +void("affichage()")
}

Couloir *-right- Athlete : concurrent
Course o- - Couloir : couloirs


@enduml

@startuml


hide empty members
hide empty methods













class Athlete {
    -nom : <color:green>String</color>
    -prenom : <color:green>String</color>
    +affichage() : <color:green>void</color>
}

class Course {
    -libelle : <color:green>String</color>

    +getLibelle() : <color:green>String</color>
    +affecterAthleteDansCouloir(<color:blue>Athlete</color>, <color:blue>int</color>) : <color:green>void</color>
    +enregistrerTempsCouloir(<color:blue>int</color>) : <color:green>void</color>
    +finirTempsCouloir(<color:blue>int</color>) : <color:green>void</color>
    +recupererConcurrentCouloir(<color:blue>int</color>) : <color:green>Athlete</color>
    +recupererVainqueur() : <color:green>Athlete</color>
    +affichage() : <color:green>void</color>
}

class Couloir {
    -numCouloir : <color:green>int</color>
    +enregistrerTemps() : <color:green>void</color>
    +finirTemps() : <color:green>void</color>
    +affecterAthlete(<color:blue>Athlete</color>) : <color:green>void</color>
    +recupererConcurrent() : <color:green>Athlete</color>
    +affichage() : <color:green>void</color>
}

Couloir *-right- Athlete : concurrent
Course o- - Couloir : couloirs


@enduml

PlantUML version 1.2022.7(Mon Aug 22 19:01:30 CEST 2022)
(GPL source distribution)
Java Runtime: Java(TM) SE Runtime Environment
JVM: Java HotSpot(TM) 64-Bit Server VM
Default Encoding: Cp1252
Language: fr
Country: FR
--></g></svg>