<?xml version="1.0" encoding="UTF-8" standalone="no"?><svg xmlns="http://www.w3.org/2000/svg" xmlns:xlink="http://www.w3.org/1999/xlink" contentStyleType="text/css" height="399px" preserveAspectRatio="none" style="width:498px;height:399px;background:#FFFFFF;" version="1.1" viewBox="0 0 498 399" width="498px" zoomAndPan="magnify"><defs/><g><!--MD5=[069cecb0f107147f35d50ee2cc41a241]
class Athlete--><g id="elem_Athlete"><rect codeLine="4" fill="#F1F1F1" height="100.8281" id="Athlete" rx="2.5" ry="2.5" style="stroke:#181818;stroke-width:0.5;" width="132" x="359.5" y="273.5"/><ellipse cx="399.7" cy="289.5" fill="#ADD1B2" rx="11" ry="11" style="stroke:#181818;stroke-width:1.0;"/><path d="M402.4656,285.375 Q402.6219,285.1563 402.8094,285.0469 Q402.9969,284.9375 403.2156,284.9375 Q403.5906,284.9375 403.825,285.1953 Q404.0594,285.4531 404.0594,286.0625 L404.0594,287.5156 Q404.0594,288.125 403.825,288.3906 Q403.5906,288.6563 403.2156,288.6563 Q402.8719,288.6563 402.6688,288.4531 Q402.4656,288.2656 402.3563,287.75 Q402.3094,287.3906 402.1219,287.2031 Q401.7938,286.8281 401.1844,286.6094 Q400.575,286.3906 399.95,286.3906 Q399.1844,286.3906 398.5516,286.7188 Q397.9188,287.0469 397.4266,287.7969 Q396.9344,288.5469 396.9344,289.5781 L396.9344,290.6719 Q396.9344,291.9063 397.825,292.7266 Q398.7156,293.5469 400.3094,293.5469 Q401.2469,293.5469 401.9031,293.2969 Q402.2938,293.1406 402.7156,292.7031 Q402.9813,292.4375 403.1297,292.3594 Q403.2781,292.2813 403.4813,292.2813 Q403.8094,292.2813 404.0672,292.5391 Q404.325,292.7969 404.325,293.1406 Q404.325,293.4844 403.9813,293.8906 Q403.4813,294.4688 402.6844,294.7969 Q401.6063,295.25 400.3094,295.25 Q398.7938,295.25 397.5906,294.625 Q396.6063,294.125 395.9188,293.0547 Q395.2313,291.9844 395.2313,290.7031 L395.2313,289.5469 Q395.2313,288.2188 395.8484,287.0703 Q396.4656,285.9219 397.5594,285.3047 Q398.6531,284.6875 399.8875,284.6875 Q400.6219,284.6875 401.2703,284.8516 Q401.9188,285.0156 402.4656,285.375 Z " fill="#000000"/><text fill="#000000" font-family="sans-serif" font-size="14" lengthAdjust="spacing" textLength="44" x="419.3" y="295.2285">Athlete</text><line style="stroke:#181818;stroke-width:0.5;" x1="360.5" x2="490.5" y1="305.5" y2="305.5"/><rect fill="none" height="6" style="stroke:#C82930;stroke-width:1.0;" width="6" x="367.5" y="316.8047"/><text fill="#000000" font-family="sans-serif" font-size="14" lengthAdjust="spacing" textLength="35" x="379.5" y="324.0332">nom :</text><text fill="#008000" font-family="sans-serif" font-size="14" lengthAdjust="spacing" textLength="37" x="418.5" y="324.0332">String</text><rect fill="none" height="6" style="stroke:#C82930;stroke-width:1.0;" width="6" x="367.5" y="334.4141"/><text fill="#000000" font-family="sans-serif" font-size="14" lengthAdjust="spacing" textLength="56" x="379.5" y="341.6426">prenom :</text><text fill="#008000" font-family="sans-serif" font-size="14" lengthAdjust="spacing" textLength="37" x="439.5" y="341.6426">String</text><line style="stroke:#181818;stroke-width:0.5;" x1="360.5" x2="490.5" y1="348.7188" y2="348.7188"/><ellipse cx="370.5" cy="363.0234" fill="#84BE84" rx="3" ry="3" style="stroke:#038048;stroke-width:1.0;"/><text fill="#000000" font-family="sans-serif" font-size="14" lengthAdjust="spacing" textLength="76" x="379.5" y="367.252">affichage() :</text><text fill="#008000" font-family="sans-serif" font-size="14" lengthAdjust="spacing" textLength="26" x="459.5" y="367.252">void</text></g><!--MD5=[4066b0363c5a91ff3b6e03e0428953a9]
class Course--><g id="elem_Course"><rect codeLine="10" fill="#F1F1F1" height="171.2656" id="Course" rx="2.5" ry="2.5" style="stroke:#181818;stroke-width:0.5;" width="285" x="7" y="7"/><ellipse cx="122.25" cy="23" fill="#ADD1B2" rx="11" ry="11" style="stroke:#181818;stroke-width:1.0;"/><path d="M125.0156,18.875 Q125.1719,18.6563 125.3594,18.5469 Q125.5469,18.4375 125.7656,18.4375 Q126.1406,18.4375 126.375,18.6953 Q126.6094,18.9531 126.6094,19.5625 L126.6094,21.0156 Q126.6094,21.625 126.375,21.8906 Q126.1406,22.1563 125.7656,22.1563 Q125.4219,22.1563 125.2188,21.9531 Q125.0156,21.7656 124.9063,21.25 Q124.8594,20.8906 124.6719,20.7031 Q124.3438,20.3281 123.7344,20.1094 Q123.125,19.8906 122.5,19.8906 Q121.7344,19.8906 121.1016,20.2188 Q120.4688,20.5469 119.9766,21.2969 Q119.4844,22.0469 119.4844,23.0781 L119.4844,24.1719 Q119.4844,25.4063 120.375,26.2266 Q121.2656,27.0469 122.8594,27.0469 Q123.7969,27.0469 124.4531,26.7969 Q124.8438,26.6406 125.2656,26.2031 Q125.5313,25.9375 125.6797,25.8594 Q125.8281,25.7813 126.0313,25.7813 Q126.3594,25.7813 126.6172,26.0391 Q126.875,26.2969 126.875,26.6406 Q126.875,26.9844 126.5313,27.3906 Q126.0313,27.9688 125.2344,28.2969 Q124.1563,28.75 122.8594,28.75 Q121.3438,28.75 120.1406,28.125 Q119.1563,27.625 118.4688,26.5547 Q117.7813,25.4844 117.7813,24.2031 L117.7813,23.0469 Q117.7813,21.7188 118.3984,20.5703 Q119.0156,19.4219 120.1094,18.8047 Q121.2031,18.1875 122.4375,18.1875 Q123.1719,18.1875 123.8203,18.3516 Q124.4688,18.5156 125.0156,18.875 Z " fill="#000000"/><text fill="#000000" font-family="sans-serif" font-size="14" lengthAdjust="spacing" textLength="46" x="142.75" y="28.7285">Course</text><line style="stroke:#181818;stroke-width:0.5;" x1="8" x2="291" y1="39" y2="39"/><rect fill="none" height="6" style="stroke:#C82930;stroke-width:1.0;" width="6" x="15" y="50.3047"/><text fill="#000000" font-family="sans-serif" font-size="14" lengthAdjust="spacing" textLength="44" x="27" y="57.5332">libelle :</text><text fill="#008000" font-family="sans-serif" font-size="14" lengthAdjust="spacing" textLength="37" x="75" y="57.5332">String</text><line style="stroke:#181818;stroke-width:0.5;" x1="8" x2="291" y1="64.6094" y2="64.6094"/><ellipse cx="18" cy="78.9141" fill="#84BE84" rx="3" ry="3" style="stroke:#038048;stroke-width:1.0;"/><text fill="#000000" font-family="sans-serif" font-size="14" lengthAdjust="spacing" textLength="79" x="27" y="83.1426">getLibelle() :</text><text fill="#008000" font-family="sans-serif" font-size="14" lengthAdjust="spacing" textLength="37" x="110" y="83.1426">String</text><ellipse cx="18" cy="96.5234" fill="#84BE84" rx="3" ry="3" style="stroke:#038048;stroke-width:1.0;"/><text fill="#000000" font-family="sans-serif" font-size="14" lengthAdjust="spacing" textLength="162" x="27" y="100.752">enregistrerTempsCouloir(</text><text fill="#0000FF" font-family="sans-serif" font-size="14" lengthAdjust="spacing" textLength="15" x="189" y="100.752">int</text><text fill="#000000" font-family="sans-serif" font-size="14" lengthAdjust="spacing" textLength="13" x="204" y="100.752">) :</text><text fill="#008000" font-family="sans-serif" font-size="14" lengthAdjust="spacing" textLength="26" x="221" y="100.752">void</text><ellipse cx="18" cy="114.1328" fill="#84BE84" rx="3" ry="3" style="stroke:#038048;stroke-width:1.0;"/><text fill="#000000" font-family="sans-serif" font-size="14" lengthAdjust="spacing" textLength="116" x="27" y="118.3613">finirTempsCouloir(</text><text fill="#0000FF" font-family="sans-serif" font-size="14" lengthAdjust="spacing" textLength="15" x="143" y="118.3613">int</text><text fill="#000000" font-family="sans-serif" font-size="14" lengthAdjust="spacing" textLength="13" x="158" y="118.3613">) :</text><text fill="#008000" font-family="sans-serif" font-size="14" lengthAdjust="spacing" textLength="26" x="175" y="118.3613">void</text><ellipse cx="18" cy="131.7422" fill="#84BE84" rx="3" ry="3" style="stroke:#038048;stroke-width:1.0;"/><text fill="#000000" font-family="sans-serif" font-size="14" lengthAdjust="spacing" textLength="183" x="27" y="135.9707">recupererConcurrentCouloir(</text><text fill="#0000FF" font-family="sans-serif" font-size="14" lengthAdjust="spacing" textLength="15" x="210" y="135.9707">int</text><text fill="#000000" font-family="sans-serif" font-size="14" lengthAdjust="spacing" textLength="13" x="225" y="135.9707">) :</text><text fill="#008000" font-family="sans-serif" font-size="14" lengthAdjust="spacing" textLength="44" x="242" y="135.9707">Athlete</text><ellipse cx="18" cy="149.3516" fill="#84BE84" rx="3" ry="3" style="stroke:#038048;stroke-width:1.0;"/><text fill="#000000" font-family="sans-serif" font-size="14" lengthAdjust="spacing" textLength="145" x="27" y="153.5801">recupererVainqueur() :</text><text fill="#008000" font-family="sans-serif" font-size="14" lengthAdjust="spacing" textLength="44" x="176" y="153.5801">Athlete</text><ellipse cx="18" cy="166.9609" fill="#84BE84" rx="3" ry="3" style="stroke:#038048;stroke-width:1.0;"/><text fill="#000000" font-family="sans-serif" font-size="14" lengthAdjust="spacing" textLength="76" x="27" y="171.1895">affichage() :</text><text fill="#008000" font-family="sans-serif" font-size="14" lengthAdjust="spacing" textLength="26" x="107" y="171.1895">void</text></g><!--MD5=[5e1370445d2c065fb19bb4f605839f3f]
class Couloir--><g id="elem_Couloir"><rect codeLine="21" fill="#F1F1F1" height="136.0469" id="Couloir" rx="2.5" ry="2.5" style="stroke:#181818;stroke-width:0.5;" width="225" x="37" y="256"/><ellipse cx="122.75" cy="272" fill="#ADD1B2" rx="11" ry="11" style="stroke:#181818;stroke-width:1.0;"/><path d="M125.5156,267.875 Q125.6719,267.6563 125.8594,267.5469 Q126.0469,267.4375 126.2656,267.4375 Q126.6406,267.4375 126.875,267.6953 Q127.1094,267.9531 127.1094,268.5625 L127.1094,270.0156 Q127.1094,270.625 126.875,270.8906 Q126.6406,271.1563 126.2656,271.1563 Q125.9219,271.1563 125.7188,270.9531 Q125.5156,270.7656 125.4063,270.25 Q125.3594,269.8906 125.1719,269.7031 Q124.8438,269.3281 124.2344,269.1094 Q123.625,268.8906 123,268.8906 Q122.2344,268.8906 121.6016,269.2188 Q120.9688,269.5469 120.4766,270.2969 Q119.9844,271.0469 119.9844,272.0781 L119.9844,273.1719 Q119.9844,274.4063 120.875,275.2266 Q121.7656,276.0469 123.3594,276.0469 Q124.2969,276.0469 124.9531,275.7969 Q125.3438,275.6406 125.7656,275.2031 Q126.0313,274.9375 126.1797,274.8594 Q126.3281,274.7813 126.5313,274.7813 Q126.8594,274.7813 127.1172,275.0391 Q127.375,275.2969 127.375,275.6406 Q127.375,275.9844 127.0313,276.3906 Q126.5313,276.9688 125.7344,277.2969 Q124.6563,277.75 123.3594,277.75 Q121.8438,277.75 120.6406,277.125 Q119.6563,276.625 118.9688,275.5547 Q118.2813,274.4844 118.2813,273.2031 L118.2813,272.0469 Q118.2813,270.7188 118.8984,269.5703 Q119.5156,268.4219 120.6094,267.8047 Q121.7031,267.1875 122.9375,267.1875 Q123.6719,267.1875 124.3203,267.3516 Q124.9688,267.5156 125.5156,267.875 Z " fill="#000000"/><text fill="#000000" font-family="sans-serif" font-size="14" lengthAdjust="spacing" textLength="45" x="143.25" y="277.7285">Couloir</text><line style="stroke:#181818;stroke-width:0.5;" x1="38" x2="261" y1="288" y2="288"/><rect fill="none" height="6" style="stroke:#C82930;stroke-width:1.0;" width="6" x="45" y="299.3047"/><text fill="#000000" font-family="sans-serif" font-size="14" lengthAdjust="spacing" textLength="80" x="57" y="306.5332">numCouloir :</text><text fill="#008000" font-family="sans-serif" font-size="14" lengthAdjust="spacing" textLength="15" x="141" y="306.5332">int</text><line style="stroke:#181818;stroke-width:0.5;" x1="38" x2="261" y1="313.6094" y2="313.6094"/><ellipse cx="48" cy="327.9141" fill="#84BE84" rx="3" ry="3" style="stroke:#038048;stroke-width:1.0;"/><text fill="#000000" font-family="sans-serif" font-size="14" lengthAdjust="spacing" textLength="130" x="57" y="332.1426">enregistrerTemps() :</text><text fill="#008000" font-family="sans-serif" font-size="14" lengthAdjust="spacing" textLength="26" x="191" y="332.1426">void</text><ellipse cx="48" cy="345.5234" fill="#84BE84" rx="3" ry="3" style="stroke:#038048;stroke-width:1.0;"/><text fill="#000000" font-family="sans-serif" font-size="14" lengthAdjust="spacing" textLength="84" x="57" y="349.752">finirTemps() :</text><text fill="#008000" font-family="sans-serif" font-size="14" lengthAdjust="spacing" textLength="26" x="145" y="349.752">void</text><ellipse cx="48" cy="363.1328" fill="#84BE84" rx="3" ry="3" style="stroke:#038048;stroke-width:1.0;"/><text fill="#000000" font-family="sans-serif" font-size="14" lengthAdjust="spacing" textLength="151" x="57" y="367.3613">recupererConcurrent() :</text><text fill="#008000" font-family="sans-serif" font-size="14" lengthAdjust="spacing" textLength="44" x="212" y="367.3613">Athlete</text><ellipse cx="48" cy="380.7422" fill="#84BE84" rx="3" ry="3" style="stroke:#038048;stroke-width:1.0;"/><text fill="#000000" font-family="sans-serif" font-size="14" lengthAdjust="spacing" textLength="76" x="57" y="384.9707">affichage() :</text><text fill="#008000" font-family="sans-serif" font-size="14" lengthAdjust="spacing" textLength="26" x="137" y="384.9707">void</text></g><!--MD5=[8c83fc1f94a872d1f70b29724d852d9e]
reverse link Couloir to Athlete--><g id="link_Couloir_Athlete"><path codeLine="29" d="M275.37,324 C304.28,324 333.9,324 359.11,324 " fill="none" id="Couloir-backto-Athlete" style="stroke:#181818;stroke-width:1.0;"/><polygon fill="#181818" points="262.16,324,268.16,328,274.16,324,268.16,320,262.16,324" style="stroke:#181818;stroke-width:1.0;"/><text fill="#000000" font-family="sans-serif" font-size="13" lengthAdjust="spacing" textLength="61" x="280.25" y="317.4951">concurrent</text></g><!--MD5=[e3fead6f36b216db213fc906e3286bdb]
reverse link Course to Couloir--><g id="link_Course_Couloir"><path codeLine="30" d="M149.5,191.33 C149.5,213.04 149.5,235.58 149.5,255.74 " fill="none" id="Course-backto-Couloir" style="stroke:#181818;stroke-width:1.0;"/><polygon fill="none" points="149.5,178.31,145.5,184.31,149.5,190.31,153.5,184.31,149.5,178.31" style="stroke:#181818;stroke-width:1.0;"/><text fill="#000000" font-family="sans-serif" font-size="13" lengthAdjust="spacing" textLength="45" x="150.5" y="222.4951">couloirs</text></g><!--MD5=[32705f1d3694df7bcfd03d0611b0a580]
@startuml

!includeurl https://raw.githubusercontent.com/manuvai/plantuml-utils/master/class_diagram_utils.puml

class Athlete {
    -string(nom)
    -string(prenom)
    +void("affichage()")
}

class Course {
    -string(libelle)

    +string("getLibelle()")
    +void("enregistrerTempsCouloir(int)")
    +void("finirTempsCouloir(int)")
    +member(Athlete, "recupererConcurrentCouloir(int)")
    +member(Athlete, "recupererVainqueur()")
    +void("affichage()")
}

class Couloir {
    -int(numCouloir)
    +void("enregistrerTemps()")
    +void("finirTemps()")
    +member(Athlete, "recupererConcurrent()")
    +void("affichage()")
}

Couloir *-right- Athlete : concurrent
Course o- - Couloir : couloirs


@enduml

@startuml


hide empty members
hide empty methods













class Athlete {
    -nom : <color:green>String</color>
    -prenom : <color:green>String</color>
    +affichage() : <color:green>void</color>
}

class Course {
    -libelle : <color:green>String</color>

    +getLibelle() : <color:green>String</color>
    +enregistrerTempsCouloir(<color:blue>int</color>) : <color:green>void</color>
    +finirTempsCouloir(<color:blue>int</color>) : <color:green>void</color>
    +recupererConcurrentCouloir(<color:blue>int</color>) : <color:green>Athlete</color>
    +recupererVainqueur() : <color:green>Athlete</color>
    +affichage() : <color:green>void</color>
}

class Couloir {
    -numCouloir : <color:green>int</color>
    +enregistrerTemps() : <color:green>void</color>
    +finirTemps() : <color:green>void</color>
    +recupererConcurrent() : <color:green>Athlete</color>
    +affichage() : <color:green>void</color>
}

Couloir *-right- Athlete : concurrent
Course o- - Couloir : couloirs


@enduml

PlantUML version 1.2022.7(Mon Aug 22 19:01:30 CEST 2022)
(GPL source distribution)
Java Runtime: Java(TM) SE Runtime Environment
JVM: Java HotSpot(TM) 64-Bit Server VM
Default Encoding: Cp1252
Language: fr
Country: FR
--></g></svg>